<svg id="Layer_2" data-name="Layer 2" xmlns="http://www.w3.org/2000/svg" viewBox="0 0 29 33"><defs><style>.cls-1{fill:#4cb7c2;}</style></defs><title>360-icon</title><path class="cls-1" d="M14.52,32.56a16.06,16.06,0,0,1-14-8.26,1,1,0,1,1,1.75-1,14,14,0,0,0,24.56,0,1,1,0,1,1,1.75,1A16.06,16.06,0,0,1,14.52,32.56Z"/><path class="cls-1" d="M1.11,10.73A1,1,0,0,1,.22,9.28a16,16,0,0,1,28.6,0,1,1,0,0,1-1.78.91,14,14,0,0,0-25,0A1,1,0,0,1,1.11,10.73Z"/><path class="cls-1" d="M1.19,14.65a3.55,3.55,0,0,1,.4-1.23A2.91,2.91,0,0,1,3.33,12a4.15,4.15,0,0,1,1.22-.17,3.65,3.65,0,0,1,1.25.2,2.79,2.79,0,0,1,.92.54,2.26,2.26,0,0,1,.57.78,2.32,2.32,0,0,1,.19.94,3.09,3.09,0,0,1-.09.79,1.8,1.8,0,0,1-.27.59,1.64,1.64,0,0,1-.44.42,2.7,2.7,0,0,1-.6.29,2.11,2.11,0,0,1,1.57,2.15,3,3,0,0,1-.27,1.31,2.69,2.69,0,0,1-.73.93,3.14,3.14,0,0,1-1.06.56,4.29,4.29,0,0,1-1.26.18,4.5,4.5,0,0,1-1.2-.15,2.77,2.77,0,0,1-.94-.46,3,3,0,0,1-.72-.79A5.32,5.32,0,0,1,.93,19l.9-.36a1.12,1.12,0,0,1,.65-.07.61.61,0,0,1,.43.3,2.36,2.36,0,0,0,.62.78,1.26,1.26,0,0,0,.77.24,1.4,1.4,0,0,0,.59-.11,1.28,1.28,0,0,0,.42-.29,1.22,1.22,0,0,0,.25-.41,1.32,1.32,0,0,0,.08-.46,3.21,3.21,0,0,0,0-.55.71.71,0,0,0-.24-.42,1.33,1.33,0,0,0-.59-.27,4.9,4.9,0,0,0-1.1-.09V15.88a4.08,4.08,0,0,0,1-.09,1.46,1.46,0,0,0,.56-.25.75.75,0,0,0,.26-.39,1.81,1.81,0,0,0,.06-.5,1.25,1.25,0,0,0-.27-.86,1,1,0,0,0-.82-.3,1.21,1.21,0,0,0-1.18.83.85.85,0,0,1-.36.47,1,1,0,0,1-.63.05Z"/><path class="cls-1" d="M11.59,15.58a2.89,2.89,0,0,1,1-.17,3.15,3.15,0,0,1,1,.17A2.55,2.55,0,0,1,15.15,17a3,3,0,0,1,.24,1.26,3.25,3.25,0,0,1-.25,1.26,3.14,3.14,0,0,1-.7,1,3.31,3.31,0,0,1-1.09.71,3.69,3.69,0,0,1-1.41.26,3.83,3.83,0,0,1-1.42-.25,3,3,0,0,1-1.07-.7,3,3,0,0,1-.67-1.07,3.93,3.93,0,0,1-.23-1.37,4.76,4.76,0,0,1,1.08-2.84l2.13-2.88a1.21,1.21,0,0,1,.43-.33,1.47,1.47,0,0,1,.65-.14h1.79L11.84,15.3Zm.32,4.34a1.45,1.45,0,0,0,.58-.12,1.41,1.41,0,0,0,.46-.32,1.52,1.52,0,0,0,.31-.48,1.57,1.57,0,0,0,.11-.6,1.83,1.83,0,0,0-.11-.65,1.32,1.32,0,0,0-.3-.48,1.31,1.31,0,0,0-.47-.3,1.73,1.73,0,0,0-.61-.1,1.42,1.42,0,0,0-.56.11,1.27,1.27,0,0,0-.44.31,1.45,1.45,0,0,0-.29.48,1.8,1.8,0,0,0-.1.63,2.18,2.18,0,0,0,.08.63,1.3,1.3,0,0,0,.26.48,1.14,1.14,0,0,0,.44.31A1.69,1.69,0,0,0,11.91,19.93Z"/><path class="cls-1" d="M23,16.68a7.72,7.72,0,0,1-.27,2.15A4.42,4.42,0,0,1,22,20.34a3,3,0,0,1-1.12.89,3.35,3.35,0,0,1-1.4.29,3.31,3.31,0,0,1-1.39-.29A3,3,0,0,1,17,20.34a4.4,4.4,0,0,1-.73-1.51A7.78,7.78,0,0,1,16,16.68a7.78,7.78,0,0,1,.26-2.15A4.41,4.41,0,0,1,17,13a2.93,2.93,0,0,1,1.11-.89,3.35,3.35,0,0,1,1.39-.29,3.39,3.39,0,0,1,1.4.29A3,3,0,0,1,22,13a4.42,4.42,0,0,1,.74,1.51A7.72,7.72,0,0,1,23,16.68Zm-2.08,0a8.61,8.61,0,0,0-.12-1.61,3.29,3.29,0,0,0-.33-1,1.19,1.19,0,0,0-.46-.49,1.14,1.14,0,0,0-.53-.13,1.12,1.12,0,0,0-.52.13,1.16,1.16,0,0,0-.46.49,3.37,3.37,0,0,0-.32,1A8.77,8.77,0,0,0,18,16.68a8.75,8.75,0,0,0,.12,1.61,3.42,3.42,0,0,0,.32,1,1.16,1.16,0,0,0,.46.49,1.12,1.12,0,0,0,.52.13,1.14,1.14,0,0,0,.53-.13,1.19,1.19,0,0,0,.46-.49,3.34,3.34,0,0,0,.33-1A8.59,8.59,0,0,0,20.9,16.68Z"/><path class="cls-1" d="M25.84,11.81a2.7,2.7,0,0,1,.9.14,2,2,0,0,1,.7.41,1.89,1.89,0,0,1,.46.66,2.18,2.18,0,0,1,.17.87,2.25,2.25,0,0,1-.17.89,1.91,1.91,0,0,1-.46.67,2,2,0,0,1-.7.42,2.65,2.65,0,0,1-.9.15,2.71,2.71,0,0,1-.91-.15,2.07,2.07,0,0,1-.71-.42,1.87,1.87,0,0,1-.46-.67,2.25,2.25,0,0,1-.17-.89,2.18,2.18,0,0,1,.17-.87,1.86,1.86,0,0,1,.46-.66,2.06,2.06,0,0,1,.71-.41A2.76,2.76,0,0,1,25.84,11.81Zm0,3.07a.56.56,0,0,0,.49-.22,1.33,1.33,0,0,0,.16-.75,1.32,1.32,0,0,0-.16-.75.56.56,0,0,0-.49-.22.59.59,0,0,0-.52.22,1.35,1.35,0,0,0-.16.75,1.36,1.36,0,0,0,.16.75A.59.59,0,0,0,25.84,14.89Z"/></svg>
