<?xml version="1.0" encoding="utf-8"?>
<!-- Generator: Adobe Illustrator 21.1.0, SVG Export Plug-In . SVG Version: 6.00 Build 0)  -->
<svg version="1.1" id="Layer_1" xmlns="http://www.w3.org/2000/svg" xmlns:xlink="http://www.w3.org/1999/xlink" x="0px" y="0px"
	 viewBox="0 0 144 144" style="enable-background:new 0 0 144 144;" xml:space="preserve">
<style type="text/css">
	.st0{fill:#877874;}
	.st1{fill:none;stroke:#0099A8;stroke-width:2;}
</style>
<title>Artboard 1</title>
<path class="st0" d="M141,53.2c0,0-17.8-1.6-25-1.6c-21.5,0-36.6,6.5-44,6.5s-22.5-6.5-44-6.5c-7.2,0-25,1.6-25,1.6
	C3,61.7,2.7,64,4.6,64.5c1.2,0.3,3.7,1.2,5.3,9.8s2.8,18.4,25.8,18.4c20.8,0,24.4-9.4,25.5-11.8c0.6-1.3,3.7-6.3,5.1-10.3
	s5.8-3.3,5.8-3.3s4.4-0.7,5.8,3.3s4.5,9,5.1,10.3c1.1,2.5,4.7,11.8,25.5,11.8c23,0,24.2-9.8,25.8-18.4s4-9.4,5.3-9.8
	C141.3,64,141,61.7,141,53.2z M61.6,71.6C58,85.3,55.1,89.2,35,89.2c-21.3,0-20.8-10.2-22.6-20.7C9.9,54.1,22.6,54,38.8,55.9
	C48.8,57.2,65.5,57.1,61.6,71.6z M131.6,68.4c-1.8,10.5-1.3,20.7-22.6,20.7c-20.2,0-23-3.8-26.7-17.6c-3.9-14.5,12.8-14.5,22.8-15.7
	C121.4,54,134.1,54.1,131.6,68.4L131.6,68.4z"/>
<line class="st1" x1="83" y1="51.5" x2="63" y2="51.5"/>
</svg>
