<?xml version="1.0" encoding="utf-8"?>
<!-- Generator: Adobe Illustrator 21.1.0, SVG Export Plug-In . SVG Version: 6.00 Build 0)  -->
<svg version="1.1" id="Layer_1" xmlns="http://www.w3.org/2000/svg" xmlns:xlink="http://www.w3.org/1999/xlink" x="0px" y="0px"
	 viewBox="0 0 144 144" style="enable-background:new 0 0 144 144;" xml:space="preserve">
<style type="text/css">
	.st0{fill:#877874;}
	.st1{fill:none;stroke:#0099A8;stroke-width:2;}
</style>
<title>Artboard 3</title>
<path class="st0" d="M139.4,53.3c0,0-17.6-1.5-24.7-1.5c-21.2,0-36.2,6.5-43.5,6.5s-22.3-6.5-43.5-6.5C20.6,51.7,3,53.3,3,53.3
	c0,8.4-0.3,10.6,1.6,11.1c1.2,0.3,3.6,1.2,5.2,9.7s2.8,18.2,25.5,18.2c20.5,0,24.1-9.2,25.2-11.7c0.6-1.3,3.7-6.3,5-10.2
	s5.8-3.2,5.8-3.2s4.3-0.7,5.7,3.2s4.4,8.9,5,10.2c1.1,2.4,4.7,11.7,25.2,11.7c22.7,0,23.9-9.7,25.5-18.2s4-9.3,5.2-9.7
	C139.7,63.9,139.4,61.6,139.4,53.3z M60.9,71.4C57.3,85,54.5,88.8,34.6,88.8c-21,0-20.6-10.1-22.3-20.5C9.8,54.1,22.4,54,38.3,55.9
	C48.3,57.1,64.8,57.1,60.9,71.4z M130.1,68.3c-1.8,10.4-1.3,20.5-22.3,20.5C87.8,88.8,85,85,81.4,71.4C77.6,57.1,94.1,57.1,104,55.9
	C120,54,132.5,54.1,130.1,68.3z"/>
<line class="st1" x1="141" y1="69.5" x2="3" y2="69.5"/>
</svg>
