<?xml version="1.0" encoding="utf-8"?>
<!-- Generator: Adobe Illustrator 21.1.0, SVG Export Plug-In . SVG Version: 6.00 Build 0)  -->
<svg version="1.1" id="Layer_1" xmlns="http://www.w3.org/2000/svg" xmlns:xlink="http://www.w3.org/1999/xlink" x="0px" y="0px"
	 viewBox="0 0 144 144" style="enable-background:new 0 0 144 144;" xml:space="preserve">
<style type="text/css">
	.st0{fill:#877874;}
	.st1{fill:none;stroke:#0099A8;stroke-width:2;}
</style>
<title>Artboard 2</title>
<path class="st0" d="M140.3,53.1c0,0-17.7-1.6-24.8-1.6c-21.4,0-36.4,6.5-43.8,6.5s-22.5-6.5-43.8-6.5C20.7,51.6,3,53.1,3,53.1
	c0,8.4-0.3,10.7,1.6,11.2c1.2,0.3,3.7,1.2,5.2,9.8s2.8,18.3,25.6,18.3c20.7,0,24.3-9.3,25.4-11.8c0.6-1.3,3.7-6.3,5-10.3
	s5.9-3.2,5.9-3.2s4.4-0.7,5.7,3.2s4.4,9,5,10.3c1.1,2.5,4.7,11.8,25.4,11.8c22.9,0,24.1-9.8,25.6-18.3s4-9.4,5.2-9.8
	C140.6,63.8,140.3,61.6,140.3,53.1z M61.3,71.4c-3.6,13.7-6.5,17.5-26.5,17.5c-21.2,0-20.7-10.2-22.5-20.6
	C9.9,54,22.5,53.9,38.6,55.8C48.6,57,65.2,57,61.3,71.4L61.3,71.4z M131,68.3c-1.8,10.4-1.3,20.6-22.5,20.6
	c-20.1,0-22.9-3.8-26.5-17.5C78.1,57,94.7,57,104.7,55.8C120.8,53.9,133.4,54,131,68.3z"/>
<line class="st1" x1="134" y1="66.5" x2="82" y2="66.5"/>
</svg>
