<?xml version="1.0" encoding="utf-8"?>
<!-- Generator: Adobe Illustrator 21.1.0, SVG Export Plug-In . SVG Version: 6.00 Build 0)  -->
<svg version="1.1" id="Layer_1" xmlns="http://www.w3.org/2000/svg" xmlns:xlink="http://www.w3.org/1999/xlink" x="0px" y="0px"
	 viewBox="0 0 144 144" style="enable-background:new 0 0 144 144;" xml:space="preserve">
<style type="text/css">
	.st0{fill:#877874;}
	.st1{fill:none;stroke:#0099A8;stroke-width:2;}
</style>
<title>Artboard 4</title>
<path class="st0" d="M140.1,53.3c0,0-17.6-1.5-24.6-1.5c-21.2,0-36.1,6.4-43.4,6.4s-22.3-6.4-43.5-6.4c-7.1,0-24.6,1.5-24.6,1.5
	c0,8.4-0.3,10.6,1.6,11.1c1.2,0.3,3.6,1.2,5.2,9.7s2.8,18.2,25.4,18.2c20.5,0,24.1-9.2,25.2-11.7c0.6-1.3,3.6-6.3,5-10.2
	s5.7-3.2,5.7-3.2s4.3-0.7,5.7,3.2s4.4,8.9,5,10.2c1.1,2.4,4.7,11.7,25.2,11.7c22.7,0,23.9-9.7,25.4-18.2s4-9.3,5.2-9.7
	C140.4,63.9,140.1,61.7,140.1,53.3z M61.8,71.4C58.2,85,55.4,88.8,35.5,88.8c-21,0-20.5-10.1-22.3-20.5C10.8,54.1,23.3,54,39.2,56
	C49.2,57.2,65.6,57.2,61.8,71.4z M130.8,68.3c-1.8,10.3-1.3,20.5-22.3,20.5c-19.9,0-22.7-3.8-26.3-17.3
	C78.4,57.2,94.8,57.2,104.8,56C120.7,54,133.2,54.1,130.8,68.3L130.8,68.3z"/>
<line class="st1" x1="35.5" y1="89" x2="35.5" y2="55"/>
</svg>
