<svg id="Layer_1" data-name="Layer 1" xmlns="http://www.w3.org/2000/svg" viewBox="0 0 89.97 67.5"><defs><style>.cls-1{fill:#0099a8;}</style></defs><title>ruler</title><path class="cls-1" d="M97.94,36.38a4.4,4.4,0,0,1,.35,3.37,4.11,4.11,0,0,1-2,2.67L26.36,82.08A4.67,4.67,0,0,1,23,82.5a3.83,3.83,0,0,1-2.67-2.11l-11.25-19a4.52,4.52,0,0,1-.42-3.31,4.23,4.23,0,0,1,2.11-2.74l9.7-5.48,8.44,14.2a.86.86,0,0,0,.63.56,1.07,1.07,0,0,0,.92-.14l1.83-1.12a.89.89,0,0,0,.56-.64.73.73,0,0,0-.14-.77l-8.3-14.35,7.73-4.35,3.94,6.61a.89.89,0,0,0,.64.56,1.09,1.09,0,0,0,.91-.14l1.83-1.13a.84.84,0,0,0,.56-.63.73.73,0,0,0-.14-.77L35.92,41l7.88-4.36L52.09,51a1.74,1.74,0,0,0,.71.42.9.9,0,0,0,.84-.14l2-1a1.05,1.05,0,0,0,.49-.71,1.72,1.72,0,0,0-.07-.84L47.59,34.41l7.74-4.36,3.94,6.61a1.36,1.36,0,0,0,.7.56.93.93,0,0,0,.84-.14l2-1.13a.66.66,0,0,0,.49-.56,1.61,1.61,0,0,0-.07-.84L59.27,27.8,67,23.44l8.44,14.34a.91.91,0,0,0,.63.42,1,1,0,0,0,.91-.14l1.83-1a1.42,1.42,0,0,0,.57-.7,1,1,0,0,0-.15-.85L70.94,21.19l9.7-5.49A4.67,4.67,0,0,1,84,15.28a3.85,3.85,0,0,1,2.67,2.11Z" transform="translate(-8.5 -15.14)"/></svg>