<svg id="Layer_1" data-name="Layer 1" xmlns="http://www.w3.org/2000/svg" viewBox="0 0 144 144"><defs><style>.cls-1{fill:#877874;}</style></defs><title>Artboard 6</title><path class="cls-1" d="M141.66,53s-17.89-1.58-25.09-1.58c-21.58,0-36.8,6.56-44.21,6.56s-22.7-6.56-44.28-6.56C20.89,51.38,3,53,3,53c0,8.5-.31,10.78,1.59,11.3,1.25.34,3.7,1.21,5.29,9.84s2.82,18.52,25.9,18.52c20.88,0,24.53-9.41,25.63-11.9.59-1.33,3.71-6.38,5.08-10.39s5.87-3.28,5.87-3.28,4.42-.73,5.8,3.28,4.5,9.06,5.09,10.39c1.1,2.49,4.75,11.9,25.63,11.9,23.08,0,24.31-9.9,25.9-18.52s4-9.5,5.29-9.84C142,63.73,141.66,61.46,141.66,53ZM61.92,71.42c-3.68,13.78-6.54,17.65-26.8,17.65-21.4,0-20.92-10.29-22.71-20.84C10,53.8,22.7,53.7,39,55.67,49.06,56.9,65.8,56.87,61.92,71.42Zm70.33-3.19c-1.79,10.54-1.31,20.84-22.71,20.84-20.26,0-23.12-3.87-26.8-17.65-3.89-14.55,12.86-14.53,23-15.75C122,53.7,134.7,53.8,132.25,68.23Z"/></svg>